<svg xmlns:xlink="http://www.w3.org/1999/xlink">
    <symbol fill="none" viewBox="0 0 44 41" id="star" xmlns="http://www.w3.org/2000/svg">
        <g clip-path="url(#aa)" fill-rule="evenodd" clip-rule="evenodd">
            <path d="m24.201 1.327 4.906 9.71c.178.344.438.64.758.864.32.224.69.368 1.08.42l11 1.576c.646.085 1.231.42 1.627.928a2.331 2.331 0 0 1-.253 3.129l-7.964 7.552a2.304 2.304 0 0 0-.626.953 2.266 2.266 0 0 0-.089 1.13l1.97 10.66a2.37 2.37 0 0 1-.434 1.785 2.46 2.46 0 0 1-1.59.966A2.539 2.539 0 0 1 33 40.709l-9.823-5.017a2.627 2.627 0 0 0-2.31 0l-9.812 5.017a2.564 2.564 0 0 1-1.875.183 2.512 2.512 0 0 1-1.48-1.144 2.482 2.482 0 0 1-.253-1.51l1.958-10.66a2.235 2.235 0 0 0-.08-1.13 2.272 2.272 0 0 0-.624-.953L.727 17.944a2.331 2.331 0 0 1-.723-1.645c-.01-.62.23-1.22.668-1.667h.055a2.37 2.37 0 0 1 1.474-.756l11-1.575c.39-.056.762-.203 1.084-.428.321-.226.583-.522.764-.867l4.72-9.71c.208-.402.528-.737.924-.966C21.088.1 21.542-.014 22 0h.297a2.46 2.46 0 0 1 1.125.425c.332.232.6.542.778.902Z" fill="#73943D"/>
            <path d="M21.998 35.422c-.424.02-.838.134-1.21.334l-9.79 4.996a2.586 2.586 0 0 1-1.848.137 2.533 2.533 0 0 1-1.452-1.13 2.366 2.366 0 0 1-.264-1.5l1.958-10.627a2.33 2.33 0 0 0-.086-1.138 2.367 2.367 0 0 0-.618-.966L.713 17.975a2.34 2.34 0 0 1-.701-1.667c0-.624.252-1.224.701-1.667.375-.37.86-.612 1.386-.69l11-1.586a2.402 2.402 0 0 0 1.086-.42c.32-.226.579-.526.751-.875l4.862-9.85c.217-.383.537-.7.925-.914.389-.216.83-.321 1.275-.306v35.422Z" fill="#fff"/>
        </g>
        <defs>
            <clipPath id="aa">
                <path fill="#fff" d="M0 0h44v41H0z"/>
            </clipPath>
        </defs>
    </symbol>

    <symbol fill="none" viewBox="0 0 42 42" id="globe" xmlns="http://www.w3.org/2000/svg">
        <g clip-path="url(#aa)">
            <path d="M13.23 30.625C14.685 37.377 17.616 42 21.002 42c3.385 0 6.316-4.623 7.77-11.375H13.232ZM32.328 11.375h7.321a21.048 21.048 0 0 0-10.981-9.91c1.68 2.62 2.904 6.077 3.66 9.91Z" fill="#fff"/>
            <path d="M29.37 14.875H12.63A48.758 48.758 0 0 0 12.25 21c0 2.131.134 4.187.38 6.125h16.74c.246-1.938.38-3.994.38-6.125s-.134-4.187-.38-6.125ZM33.248 21c0 2.059-.13 4.118-.37 6.125h8.207a20.982 20.982 0 0 0 0-12.25h-8.206c.239 2.007.37 4.066.37 6.125Z" fill="#73943D"/>
            <path d="M28.773 11.375C27.318 4.623 24.387 0 21.002 0c-3.386 0-6.317 4.623-7.771 11.375h15.542ZM9.669 30.625H2.348a21.047 21.047 0 0 0 10.98 9.91c-1.678-2.62-2.903-6.077-3.66-9.91Z" fill="#fff"/>
            <path d="M8.75 21c0-2.059.13-4.118.37-6.125H.912a20.983 20.983 0 0 0 0 12.25H9.12A52.012 52.012 0 0 1 8.75 21Z" fill="#73943D"/>
            <path d="M32.328 30.625c-.756 3.833-1.98 7.29-3.66 9.91a21.048 21.048 0 0 0 10.981-9.91h-7.32ZM9.669 11.375c.756-3.833 1.98-7.29 3.66-9.91a21.048 21.048 0 0 0-10.981 9.91h7.32Z" fill="#fff"/>
        </g>
        <defs>
            <clipPath id="aa">
                <path fill="#fff" d="M0 0h42v42H0z"/>
            </clipPath>
        </defs>
    </symbol>

    <symbol fill="none" viewBox="0 0 51 38" id="workers" xmlns="http://www.w3.org/2000/svg">
        <g clip-path="url(#aa)" fill-rule="evenodd" clip-rule="evenodd">
            <path d="M25.384 25.032c-7.998 0-14.744 1.342-14.744 6.508S17.386 38 25.384 38c7.998 0 14.744-1.342 14.744-6.508 0-5.165-6.793-6.46-14.744-6.46Z" fill="#73943D"/>
            <path d="M25.385 20.104a9.546 9.546 0 0 0 3.747-.762 9.736 9.736 0 0 0 3.174-2.18 10.009 10.009 0 0 0 2.112-3.261c.487-1.22.734-2.525.726-3.843 0-2.652-1.028-5.195-2.858-7.07A9.643 9.643 0 0 0 25.385.059a9.642 9.642 0 0 0-6.901 2.929 10.124 10.124 0 0 0-2.859 7.07 10.2 10.2 0 0 0 .727 3.843 10.008 10.008 0 0 0 2.112 3.262 9.737 9.737 0 0 0 3.173 2.179 9.546 9.546 0 0 0 3.748.762ZM46.572 12.398a8.705 8.705 0 0 0 .121-3.836 8.605 8.605 0 0 0-1.537-3.5 8.349 8.349 0 0 0-2.883-2.45 8.139 8.139 0 0 0-3.64-.902 8.323 8.323 0 0 0-1.646.178.24.24 0 0 0-.186.119.217.217 0 0 0 0 .261 14.135 14.135 0 0 1 2.503 7.786 14.157 14.157 0 0 1-2.213 7.877.387.387 0 0 0 .079.505c.048.04.104.066.164.077.383.068.77.104 1.16.107a7.983 7.983 0 0 0 5.1-1.665 8.325 8.325 0 0 0 2.978-4.557Z" fill="#fff"/>
            <path d="M50.56 25.686c-.695-1.532-2.387-2.577-4.937-3.088a34.879 34.879 0 0 0-7.523-.677.068.068 0 0 0-.045.017.072.072 0 0 0-.024.043.084.084 0 0 0 0 .106c1.414.725 6.838 3.836 6.154 10.415a.45.45 0 0 0 .123.36.428.428 0 0 0 .353.127c1.333-.202 4.775-.962 5.795-3.337a4.65 4.65 0 0 0 .104-3.966Z" fill="#73943D"/>
            <path d="M14.013 1.852a8.324 8.324 0 0 0-1.646-.178 8.127 8.127 0 0 0-3.64.902 8.337 8.337 0 0 0-2.881 2.451 8.592 8.592 0 0 0-1.534 3.5 8.693 8.693 0 0 0 .127 3.835A8.325 8.325 0 0 0 7.43 16.93a7.981 7.981 0 0 0 5.122 1.653c.388-.01.776-.045 1.16-.107a.366.366 0 0 0 .273-.224.389.389 0 0 0-.03-.357 13.917 13.917 0 0 1-2.319-7.695 14.057 14.057 0 0 1 2.47-8.004.217.217 0 0 0 0-.261.246.246 0 0 0-.093-.084Z" fill="#fff"/>
            <path d="M5.378 22.563c-2.55.51-4.242 1.555-4.938 3.087a4.652 4.652 0 0 0 0 4.038c1.067 2.375 4.51 3.134 5.796 3.336a.419.419 0 0 0 .352-.125.44.44 0 0 0 .123-.361c-.684-6.58 4.74-9.69 6.155-10.403a.108.108 0 0 0 0-.119.072.072 0 0 0-.024-.043.068.068 0 0 0-.046-.016 34.875 34.875 0 0 0-7.418.605Z" fill="#73943D"/>
        </g>
        <defs>
            <clipPath id="aa">
                <path fill="#fff" d="M0 0h51v38H0z"/>
            </clipPath>
        </defs>
    </symbol>

    <symbol fill="none" viewBox="0 0 33 46" id="enps" xmlns="http://www.w3.org/2000/svg">
        <g clip-path="url(#aa)" fill-rule="evenodd" clip-rule="evenodd">
            <path d="m32.917 43.125-5.42-20.7a13.437 13.437 0 0 0 3.074-8.625 13.58 13.58 0 0 0-1.568-6.351 13.885 13.885 0 0 0-4.373-4.932A14.241 14.241 0 0 0 18.432.11 14.344 14.344 0 0 0 11.8.768a14.106 14.106 0 0 0-5.58 3.576 13.732 13.732 0 0 0-3.276 5.69 13.537 13.537 0 0 0-.238 6.531 13.684 13.684 0 0 0 2.854 5.906L.07 43.125c-.116.44-.095.905.059 1.334.154.431.436.807.809 1.081.37.274.815.434 1.279.46.456.02.91-.093 1.302-.322l12.505-7.199 13.304 7.222c.352.212.76.316 1.173.299.367.011.732-.06 1.067-.207.33-.151.619-.375.845-.654.226-.28.383-.607.457-.956.088-.347.088-.71 0-1.058h.047ZM16.494 4.6a9.52 9.52 0 0 1 5.22 1.553 9.281 9.281 0 0 1 2.836 2.92 9.03 9.03 0 0 1 .785 7.83 9.176 9.176 0 0 1-2.201 3.406 9.422 9.422 0 0 1-3.912 2.296 9.568 9.568 0 0 1-4.554.218 9.467 9.467 0 0 1-4.121-1.912 9.216 9.216 0 0 1-2.716-3.59 9.036 9.036 0 0 1 .864-8.629 9.321 9.321 0 0 1 3.377-3.003A9.536 9.536 0 0 1 16.494 4.6Z" fill="#fff"/>
            <path d="M23.581 13.8a6.804 6.804 0 0 1-1.186 3.833 7.012 7.012 0 0 1-3.159 2.542 7.17 7.17 0 0 1-4.067.392 7.083 7.083 0 0 1-3.604-1.888 6.858 6.858 0 0 1-1.926-3.533 6.774 6.774 0 0 1 .4-3.987 6.931 6.931 0 0 1 2.593-3.096 7.14 7.14 0 0 1 3.91-1.163c1.867 0 3.658.727 4.978 2.02a6.832 6.832 0 0 1 2.061 4.88Z" fill="#73943D"/>
        </g>
        <defs>
            <clipPath id="aa">
                <path fill="#fff" d="M0 0h33v46H0z"/>
            </clipPath>
        </defs>
    </symbol>

    <symbol fill="none" viewBox="0 0 39 44" id="bag" xmlns="http://www.w3.org/2000/svg">
        <g clip-path="url(#aa)" fill-rule="evenodd" clip-rule="evenodd">
            <path d="M28.745 15.092a1.534 1.534 0 0 1-1.543-1.54v-2.816a7.685 7.685 0 0 0-2.54-5.679 7.723 7.723 0 0 0-5.917-1.955c-3.705.352-6.947 4.114-6.947 8.03v1.98a1.538 1.538 0 0 1-1.543 1.54 1.546 1.546 0 0 1-1.544-1.54v-1.98c0-5.5 4.41-10.582 9.725-11.088a10.808 10.808 0 0 1 8.287 2.734 10.76 10.76 0 0 1 3.544 7.958v2.816a1.527 1.527 0 0 1-1.521 1.54Z" fill="#73943D"/>
            <path d="M37.06 15.323c-1.852-2.057-4.896-3.047-9.35-3.047H11.302c-4.41 0-7.497.99-9.35 3.047C-.187 17.699-.12 20.9.122 23.1l1.544 12.265C2.129 39.6 3.87 44 13.353 44H25.66c9.482 0 11.224-4.4 11.688-8.668L38.89 23.1c.243-2.2.287-5.346-1.83-7.7v-.077ZM11.611 24.53a2.209 2.209 0 0 1-2.037-1.358 2.195 2.195 0 0 1 .478-2.398 2.207 2.207 0 0 1 3.764 1.556c0 .583-.232 1.143-.645 1.556a2.208 2.208 0 0 1-1.56.644Zm15.437 0a2.209 2.209 0 0 1-2.037-1.358 2.195 2.195 0 0 1 .478-2.398 2.207 2.207 0 0 1 3.764 1.556 2.194 2.194 0 0 1-1.376 2.039c-.27.109-.56.164-.851.16h.022Z" fill="#fff"/>
        </g>
        <defs>
            <clipPath id="aa">
                <path fill="#fff" d="M0 0h39v44H0z"/>
            </clipPath>
        </defs>
    </symbol>

    <symbol fill="none" viewBox="0 0 115 126" id="growth" xmlns="http://www.w3.org/2000/svg">
        <g clip-path="url(#aa)" fill-rule="evenodd" clip-rule="evenodd">
            <path d="M22.951 78.746a12.587 12.587 0 0 0-8.831 3.723 12.7 12.7 0 0 0-3.682 8.88v29.442c0 .681.137 1.355.401 1.983a4.947 4.947 0 0 0 1.138 1.714c.491.485 1.07.873 1.706 1.142.631.239 1.3.365 1.974.37h20.946a5.175 5.175 0 0 0 3.667-1.526 5.221 5.221 0 0 0 1.519-3.683V91.349a12.733 12.733 0 0 0-3.704-8.883 12.62 12.62 0 0 0-8.843-3.72h-6.29ZM59.59 60.9a12.62 12.62 0 0 0-8.843 3.72 12.732 12.732 0 0 0-3.704 8.883v47.288a5.358 5.358 0 0 0 1.54 3.697 5.21 5.21 0 0 0 3.68 1.512h20.912a5.196 5.196 0 0 0 3.78-1.647 5.356 5.356 0 0 0 1.54-3.697V73.503a12.732 12.732 0 0 0-3.704-8.883 12.62 12.62 0 0 0-8.843-3.72H59.59ZM96.162 45.17a12.586 12.586 0 0 0-8.82 3.711 12.699 12.699 0 0 0-3.693 8.86v63.05a5.491 5.491 0 0 0 1.539 3.697 5.21 5.21 0 0 0 3.68 1.512h20.879a5.758 5.758 0 0 0 2.007-.37 5.866 5.866 0 0 0 1.707-1.142 5.477 5.477 0 0 0 1.138-1.715c.264-.627.4-1.301.401-1.982v-63.05a12.731 12.731 0 0 0-3.728-8.874 12.617 12.617 0 0 0-8.853-3.697h-6.257Z" fill="#4C4A46"/>
            <path d="M91.277 0a5.242 5.242 0 0 0-3.68 1.546 5.211 5.211 0 0 0-1.54 3.697c.001.692.138 1.377.402 2.017a4.74 4.74 0 0 0 1.104 1.68c.48.5 1.062.89 1.707 1.143a5.1 5.1 0 0 0 2.007.403h5.387C67.12 36.029 36.136 51.892 4.25 57.841a5.173 5.173 0 0 0-3.367 2.123A5.22 5.22 0 0 0 0 63.857a5.09 5.09 0 0 0 2.141 3.36 5.235 5.235 0 0 0 3.915.875c34.33-6.42 67.387-23.526 98.404-50.414v6.117c-.01.69.115 1.375.368 2.017.264.64.65 1.223 1.138 1.714a5.685 5.685 0 0 0 1.673 1.142 5.229 5.229 0 0 0 2.007.404 5.098 5.098 0 0 0 2.008-.404 4.913 4.913 0 0 0 1.706-1.142 5.266 5.266 0 0 0 1.138-1.714 5.17 5.17 0 0 0 .402-2.017V8.335a8.454 8.454 0 0 0-2.436-5.842A8.378 8.378 0 0 0 106.669 0H91.277Z" fill="#73943D"/>
        </g>
        <defs>
            <clipPath id="aa">
                <path fill="#fff" d="M0 0h115v126H0z"/>
            </clipPath>
        </defs>
    </symbol>

    <symbol fill="none" viewBox="0 0 112 111" id="sun" xmlns="http://www.w3.org/2000/svg">
        <g clip-path="url(#aa)" fill-rule="evenodd" clip-rule="evenodd">
            <path d="M55.999 84.135c5.714 0 11.3-1.68 16.052-4.826a28.692 28.692 0 0 0 10.641-12.85 28.397 28.397 0 0 0 1.645-16.545 28.556 28.556 0 0 0-7.908-14.662 28.975 28.975 0 0 0-14.794-7.837 29.135 29.135 0 0 0-16.693 1.63A28.84 28.84 0 0 0 31.975 39.59a28.453 28.453 0 0 0-4.87 15.909 28.506 28.506 0 0 0 8.463 20.248 29.025 29.025 0 0 0 20.43 8.387Z" fill="#73943D"/>
            <path d="M61.417 5.367c0-1.423-.57-2.788-1.586-3.795A5.44 5.44 0 0 0 56.001 0a5.44 5.44 0 0 0-3.829 1.572 5.343 5.343 0 0 0-1.586 3.795v14.304a37.476 37.476 0 0 1 10.831 0V5.367Zm0 85.878c-3.59.524-7.24.524-10.831 0v14.388c0 1.423.57 2.788 1.586 3.795a5.438 5.438 0 0 0 3.83 1.572 5.439 5.439 0 0 0 3.83-1.572 5.344 5.344 0 0 0 1.585-3.795V91.245ZM106.584 60.867a5.441 5.441 0 0 0 3.83-1.572A5.346 5.346 0 0 0 112 55.5a5.346 5.346 0 0 0-1.586-3.795 5.441 5.441 0 0 0-3.83-1.572H92.067c.53 3.559.53 7.175 0 10.734h14.517Zm-86.736 0a36.49 36.49 0 0 1 0-10.734H5.416a5.44 5.44 0 0 0-3.83 1.572A5.343 5.343 0 0 0 0 55.5c0 1.423.57 2.789 1.586 3.795a5.44 5.44 0 0 0 3.83 1.572h14.432ZM95.611 23.858a5.355 5.355 0 0 0 .042-7.685 5.486 5.486 0 0 0-7.754.07l-10.236 10.2a36.696 36.696 0 0 1 7.656 7.588L95.61 23.858ZM34.337 84.557a34.34 34.34 0 0 1-4.111-3.513 37.243 37.243 0 0 1-3.573-4.075L16.39 87.114a5.398 5.398 0 0 0-1.325 1.75 5.355 5.355 0 0 0 1.077 6.11c.526.522 1.154.93 1.845 1.202a5.488 5.488 0 0 0 4.321-.134 5.44 5.44 0 0 0 1.766-1.313l10.264-10.172ZM24.073 16.242a5.473 5.473 0 0 0-3.771-1.347 5.468 5.468 0 0 0-3.68 1.578 5.373 5.373 0 0 0-1.592 3.647 5.367 5.367 0 0 0 1.36 3.738l10.292 10.173a36.693 36.693 0 0 1 7.655-7.588l-10.264-10.2ZM85.347 76.97a37.243 37.243 0 0 1-3.572 4.075 34.331 34.331 0 0 1-4.112 3.513l10.236 10.2a5.479 5.479 0 0 0 3.856 1.584c1.447 0 2.834-.57 3.857-1.584a5.38 5.38 0 0 0 1.597-3.821 5.38 5.38 0 0 0-1.597-3.822L85.347 76.969Z" fill="#4C4A46"/>
        </g>
        <defs>
            <clipPath id="aa">
                <path fill="#fff" d="M0 0h112v111H0z"/>
            </clipPath>
        </defs>
    </symbol>

    <symbol fill="none" viewBox="0 0 102 96" id="heart" xmlns="http://www.w3.org/2000/svg">
        <g clip-path="url(#aa)" fill-rule="evenodd" clip-rule="evenodd">
            <path d="M49.854 95.166a184.484 184.484 0 0 1-32.257-25.035A64.016 64.016 0 0 1 2.118 45.852c-5.788-17.887.97-38.274 19.814-44.388A32.239 32.239 0 0 1 37.097.491a32.1 32.1 0 0 1 13.905 6.077A32.255 32.255 0 0 1 64.94.524a32.393 32.393 0 0 1 15.183.992c18.87 6.063 25.678 26.45 19.864 44.337a63.907 63.907 0 0 1-15.3 24.277 185.634 185.634 0 0 1-32.283 25.036L51.002 96l-1.148-.834Z" fill="#4C4A46"/>
            <path d="m51.002 96-1.199-.808A186.217 186.217 0 0 1 17.546 70.13 63.892 63.892 0 0 1 1.99 45.852c-5.763-17.887.994-38.274 19.864-44.388a32.316 32.316 0 0 1 15.21-.96A32.176 32.176 0 0 1 51.002 6.62V96Z" fill="#4C4A46"/>
            <path d="M82.772 35.368a3.67 3.67 0 0 1-2.55-1.414 4.141 4.141 0 0 1-.867-2.981 8.228 8.228 0 0 0-1.274-4.812 8.345 8.345 0 0 0-3.826-3.222 4.024 4.024 0 0 1-2.403-1.815 3.96 3.96 0 0 1-.453-2.96c.077-.5.259-.98.533-1.407a3.678 3.678 0 0 1 1.058-1.076 3.718 3.718 0 0 1 2.922-.523c.253.035.496.12.714.253a16.257 16.257 0 0 1 7.652 6.408 16.027 16.027 0 0 1 2.42 9.634 3.96 3.96 0 0 1-1.172 2.83 3.601 3.601 0 0 1-2.754 1.086Z" fill="#73943D"/>
        </g>
        <defs>
            <clipPath id="aa">
                <path fill="#fff" d="M0 0h102v96H0z"/>
            </clipPath>
        </defs>
    </symbol>

    <symbol fill="none" viewBox="0 0 111 109" id="secure" xmlns="http://www.w3.org/2000/svg">
        <g clip-path="url(#aa)" fill-rule="evenodd" clip-rule="evenodd">
            <path d="M58.407 86.373c0-6.92 2.75-13.556 7.645-18.449a26.107 26.107 0 0 1 18.457-7.642c2.384-.045 4.76.285 7.042.978a1.425 1.425 0 0 0 2.068-1.117 41.02 41.02 0 0 0 1.397-10.727V18.018c0-3.045-1.76-3.017-2.515-3.017a58.71 58.71 0 0 1-17.242-1.704C62.767 9.72 51.729 0 47.509 0c-4.22 0-12.24 9.721-24.648 13.297a60.33 60.33 0 0 1-20.065 1.369c-.727 0-1.9-.252-2.292 2.318 0 .643-.559 32.097-.559 32.432.056 30.728 38.09 59.528 47.564 59.528 3.046 0 7.964-2.43 14.56-7.347.866-.754.39-1.257.14-1.676a25.97 25.97 0 0 1-3.802-13.548Z" fill="#4C4A46"/>
            <path d="M91.186 101.709a2.403 2.403 0 0 1-3.354.363l-15.9-13.129a2.793 2.793 0 0 1-.448-3.52l2.04-3.017a2.18 2.18 0 0 1 3.186-.53l10.172 8.38a2.404 2.404 0 0 0 3.354-.335l14.392-16.76a2.058 2.058 0 0 1 1.56-.82 2.07 2.07 0 0 1 1.625.68l2.488 2.57a2.794 2.794 0 0 1 0 3.575L91.186 101.71Z" fill="#73943D"/>
        </g>
        <defs>
            <clipPath id="aa">
                <path fill="#fff" d="M0 0h111v109H0z"/>
            </clipPath>
        </defs>
    </symbol>

    <symbol fill="none" viewBox="0 0 77 109" id="meal" xmlns="http://www.w3.org/2000/svg">
        <g clip-path="url(#aa)" fill-rule="evenodd" clip-rule="evenodd">
            <path d="m53.379 68.758 7.914 2.67a2.75 2.75 0 0 1 1.62 1.167c.391.563.555 1.254.458 1.934l-1.925 25.477a6.595 6.595 0 0 0 0 1.903 7.6 7.6 0 0 0 1.62 3.837c.238.349.538.651.885.89a8.586 8.586 0 0 0 3.056 1.781 8.43 8.43 0 0 0 4.766.368 10.03 10.03 0 0 0 4.309-2.149 3.074 3.074 0 0 0 .916-2.271V7.919a8.744 8.744 0 0 0-1.772-5.525A4.931 4.931 0 0 0 73.552.705 4.904 4.904 0 0 0 71.284 0a8.011 8.011 0 0 0-3.148 1.079 8.05 8.05 0 0 0-2.443 2.267 38.382 38.382 0 0 0-6.722 11.787 86.239 86.239 0 0 0-3.973 12.83 145.81 145.81 0 0 0-3.36 22.838c-.408 5.32-.56 10.324-.459 15.01a3.08 3.08 0 0 0 .58 1.842c.395.548.968.939 1.62 1.105Z" fill="#4C4A46"/>
            <path d="M1.834 41.07a12.32 12.32 0 0 1-1.68-6.138V3.929A3.79 3.79 0 0 1 1.467.86 3.48 3.48 0 0 1 4.187 0c.96.115 1.842.586 2.475 1.32.635.706.984 1.626.978 2.578V19.86a3.636 3.636 0 0 0 1.314 2.793 3.359 3.359 0 0 0 2.841.952 4.18 4.18 0 0 0 2.567-1.32 3.072 3.072 0 0 0 .917-2.578V3.929A3.912 3.912 0 0 1 16.593.86a3.57 3.57 0 0 1 3.055-.951 3.875 3.875 0 0 1 2.567 1.32c.635.706.984 1.626.977 2.578V19.86a3.729 3.729 0 0 0 1.223 2.793 3.329 3.329 0 0 0 2.872.952 4.027 4.027 0 0 0 2.567-1.32c.539-.745.789-1.662.702-2.578V3.929a3.94 3.94 0 0 1 .948-2.578A3.936 3.936 0 0 1 34.1 0a3.468 3.468 0 0 1 2.872.952 3.897 3.897 0 0 1 1.314 3.07v30.357a13.125 13.125 0 0 1-1.528 6.63 19.29 19.29 0 0 1-5.805 5.618 20.695 20.695 0 0 0-4.767 4.542 7.82 7.82 0 0 0-1.742 5.065l3.361 42.452c.091.435.142.876.153 1.32a9.029 9.029 0 0 1-1.192 4.574 8.116 8.116 0 0 1-3.055 3.069 8.679 8.679 0 0 1-8.8 0 8.383 8.383 0 0 1-3.239-3.069 9.242 9.242 0 0 1-1.161-4.574v-.307l3.361-43.465a8.313 8.313 0 0 0-1.65-5.157 18.366 18.366 0 0 0-4.828-4.542 21.068 21.068 0 0 1-5.56-5.464Z" fill="#73943D"/>
        </g>
        <defs>
            <clipPath id="aa">
                <path fill="#fff" d="M0 0h77v109H0z"/>
            </clipPath>
        </defs>
    </symbol>

    <symbol fill="none" viewBox="0 0 59 72" id="hr" xmlns="http://www.w3.org/2000/svg">
        <g clip-path="url(#aa)" fill-rule="evenodd" clip-rule="evenodd">
            <path d="M11.734 20.324C5.369 20.324 0 21.357 0 25.38c0 4.021 5.406 5.017 11.734 5.017s11.734-1.033 11.734-5.054c0-4.021-5.406-5.018-11.734-5.018ZM11.732 16.506A7.767 7.767 0 0 0 19.5 8.684 7.765 7.765 0 0 0 11.732.918a7.768 7.768 0 0 0-7.767 7.766 7.765 7.765 0 0 0 7.767 7.822Z" fill="#B01117"/>
            <path d="M46.64 20.324c-6.365 0-11.734 1.033-11.734 5.055 0 4.021 5.406 5.017 11.734 5.017s11.734-1.033 11.734-5.054c0-4.021-5.406-5.018-11.734-5.018Z" fill="#DAACAE"/>
            <path d="M46.639 16.506a7.789 7.789 0 0 0 7.186-4.835 7.786 7.786 0 0 0 .58-2.987 7.766 7.766 0 0 0-13.259-5.491 7.765 7.765 0 0 0-2.275 5.491 7.764 7.764 0 0 0 7.767 7.822ZM11.734 61.129C5.369 61.129 0 62.162 0 66.183c0 4.022 5.406 5.018 11.734 5.018s11.734-1.052 11.734-5.054c0-4.004-5.406-5.018-11.734-5.018ZM11.732 57.31a7.822 7.822 0 1 0-7.767-7.821 7.766 7.766 0 0 0 7.767 7.821ZM46.64 61.129c-6.365 0-11.734 1.033-11.734 5.054 0 4.022 5.406 5.018 11.734 5.018s11.734-1.052 11.734-5.054c0-4.004-5.406-5.018-11.734-5.018ZM46.638 57.31a7.823 7.823 0 1 0-7.767-7.821 7.782 7.782 0 0 0 4.785 7.22 7.786 7.786 0 0 0 2.982.601Z" fill="#B01117"/>
        </g>
        <defs>
            <clipPath id="aa">
                <path fill="#fff" transform="translate(0 .881)" d="M0 0h58.374v70.32H0z"/>
            </clipPath>
        </defs>
    </symbol>

    <symbol fill="none" viewBox="0 0 81 60" id="technical" xmlns="http://www.w3.org/2000/svg">
        <g clip-path="url(#aa)" fill-rule="evenodd" clip-rule="evenodd">
            <path d="M40.315 39.525c-12.702 0-23.417 2.119-23.417 10.275S27.613 60 40.315 60c12.702 0 23.416-2.119 23.416-10.275s-10.788-10.2-23.416-10.2Z" fill="#B01117"/>
            <path d="M40.317 31.744a15.239 15.239 0 0 0 5.952-1.204 15.467 15.467 0 0 0 5.04-3.441 15.794 15.794 0 0 0 3.355-5.15 16.026 16.026 0 0 0 1.154-6.068c0-4.187-1.633-8.202-4.54-11.163A15.359 15.359 0 0 0 40.318.094c-4.112 0-8.054 1.663-10.961 4.624a15.937 15.937 0 0 0-4.54 11.163c-.012 2.08.38 4.143 1.153 6.068a15.794 15.794 0 0 0 3.355 5.15 15.467 15.467 0 0 0 5.04 3.44 15.238 15.238 0 0 0 5.952 1.205ZM73.967 19.575c.516-1.977.582-4.049.192-6.056a13.545 13.545 0 0 0-2.442-5.525 13.24 13.24 0 0 0-4.578-3.87A12.987 12.987 0 0 0 61.357 2.7c-.879.007-1.754.101-2.614.281a.382.382 0 0 0-.295.188.341.341 0 0 0 0 .412 22.23 22.23 0 0 1 3.975 12.293 22.255 22.255 0 0 1-3.515 12.438.606.606 0 0 0 .387.92 11.1 11.1 0 0 0 1.84.168c2.915.082 5.771-.845 8.102-2.629a13.14 13.14 0 0 0 4.73-7.196Z" fill="#DAACAE"/>
            <path d="M80.302 40.556c-1.105-2.418-3.793-4.069-7.843-4.875a55.719 55.719 0 0 0-11.947-1.069.11.11 0 0 0-.072.026.113.113 0 0 0-.039.068.133.133 0 0 0 0 .169c2.246 1.144 10.862 6.056 9.776 16.444a.705.705 0 0 0 .194.57.679.679 0 0 0 .56.198c2.117-.318 7.585-1.518 9.205-5.268a7.315 7.315 0 0 0 .166-6.263Z" fill="#B01117"/>
            <path d="M22.256 2.925c-.86-.18-1.736-.274-2.614-.281a12.969 12.969 0 0 0-5.782 1.423 13.22 13.22 0 0 0-4.575 3.87 13.527 13.527 0 0 0-2.436 5.527 13.648 13.648 0 0 0 .2 6.055 13.139 13.139 0 0 0 4.753 7.214 12.727 12.727 0 0 0 8.134 2.61 13.753 13.753 0 0 0 1.841-.168.585.585 0 0 0 .435-.354.612.612 0 0 0-.048-.565 21.882 21.882 0 0 1-3.682-12.15A22.105 22.105 0 0 1 22.403 3.47a.341.341 0 0 0 0-.413.389.389 0 0 0-.147-.13Z" fill="#DAACAE"/>
            <path d="M8.541 35.625C4.491 36.431 1.804 38.081.7 40.5a7.31 7.31 0 0 0 0 6.375c1.694 3.75 7.161 4.95 9.205 5.269a.67.67 0 0 0 .56-.199.695.695 0 0 0 .194-.57c-1.086-10.388 7.53-15.3 9.776-16.425a.171.171 0 0 0 0-.188.113.113 0 0 0-.038-.067.11.11 0 0 0-.073-.026c-3.949-.1-7.898.22-11.782.956Z" fill="#B01117"/>
        </g>
        <defs>
            <clipPath id="aa">
                <path fill="#fff" d="M0 0h81v60H0z"/>
            </clipPath>
        </defs>
    </symbol>

    <symbol fill="none" viewBox="0 0 60 72" id="task" xmlns="http://www.w3.org/2000/svg">
        <g clip-path="url(#aa)" fill-rule="evenodd" clip-rule="evenodd">
            <path d="M38.073 51.476H19.329a2.598 2.598 0 0 1-1.824-.784 2.65 2.65 0 0 1-.752-1.853c0-.69.271-1.352.754-1.84a2.563 2.563 0 0 1 1.822-.762h18.744a2.58 2.58 0 0 1 1.828.761c.485.488.76 1.15.765 1.841a2.65 2.65 0 0 1-.758 1.859 2.598 2.598 0 0 1-1.835.778ZM19.329 28.622h11.643c.686.019 1.338.31 1.813.81.476.5.738 1.17.728 1.863a2.633 2.633 0 0 1-.766 1.84 2.58 2.58 0 0 1-1.827.761H19.329a2.563 2.563 0 0 1-1.822-.762 2.615 2.615 0 0 1-.754-1.84c0-.693.27-1.358.752-1.852a2.598 2.598 0 0 1 1.824-.784v-.036Zm38.741-3.129H47.436A11.604 11.604 0 0 1 39.304 22a11.84 11.84 0 0 1-3.372-8.25V2.499c0-.42-.161-.824-.45-1.126a1.594 1.594 0 0 0-1.099-.492H15.987A15.587 15.587 0 0 0 4.99 5.56 15.904 15.904 0 0 0 .445 16.703v37.938a16.611 16.611 0 0 0 4.749 11.676 16.28 16.28 0 0 0 11.524 4.884h27.429a15.407 15.407 0 0 0 5.954-1.227c1.886-.8 3.596-1.97 5.034-3.44a15.714 15.714 0 0 0 3.343-5.126 15.839 15.839 0 0 0 1.141-6.029V27.146a1.58 1.58 0 0 0-.422-1.164 1.551 1.551 0 0 0-1.127-.489Z" fill="#B01117"/>
            <path d="M49.403 18.936h8.563a1.73 1.73 0 0 0 .851-.337 1.774 1.774 0 0 0 .332-2.493L45.227 1.373a1.73 1.73 0 0 0-2.473.39c-.18.259-.287.56-.311.875v9.195c-.01.929.164 1.85.51 2.712a7.038 7.038 0 0 0 1.504 2.306 6.96 6.96 0 0 0 2.267 1.542c.85.358 1.76.542 2.68.542Z" fill="#DAACAE"/>
        </g>
        <defs>
            <clipPath id="aa">
                <path fill="#fff" transform="translate(.445 .881)" d="M0 0h59.174v70.32H0z"/>
            </clipPath>
        </defs>
    </symbol>

    <symbol fill="none" viewBox="0 0 79 72" id="final" xmlns="http://www.w3.org/2000/svg">
        <g clip-path="url(#aa)" fill-rule="evenodd" clip-rule="evenodd">
            <path d="M14.74 37.692V18.054H7.37c-1.954 0-3.83.775-5.211 2.156A7.358 7.358 0 0 0 0 25.416v44.173c0 .455.127.902.369 1.288.249.388.599.7 1.013.902.39.186.824.256 1.253.203.43-.041.844-.193 1.198-.442l12.75-9.313H49.51a6.53 6.53 0 0 0 2.709-.479 6.838 6.838 0 0 0 3.833-3.81c.327-.87.483-1.795.46-2.724v-2.797h-27.03c-3.91 0-7.66-1.552-10.424-4.313a14.716 14.716 0 0 1-4.317-10.412Z" fill="#DAACAE"/>
            <path d="M71.255.881H29.484c-1.955 0-3.83.776-5.212 2.157a7.358 7.358 0 0 0-2.159 5.206v29.448c0 1.953.777 3.825 2.159 5.206a7.374 7.374 0 0 0 5.212 2.156h33.295l11.737 9.203c.353.255.766.413 1.198.46.429.053.863-.017 1.253-.202A2.32 2.32 0 0 0 78 53.613a2.5 2.5 0 0 0 .369-1.307V8.244A7.358 7.358 0 0 0 76.3 3.127 7.374 7.374 0 0 0 71.255.88Z" fill="#B01117"/>
        </g>
        <defs>
            <clipPath id="aa">
                <path fill="#fff" transform="translate(0 .881)" d="M0 0h78.365v71.119H0z"/>
            </clipPath>
        </defs>
    </symbol>
</svg>
